ply
format ascii 1.0
comment test file for MDAL
comment crs: +proj=tmerc
element face 2
property list uint8 uint32 vertex_indices
property uint m
element edge  6
property uchar red_edge
property uchar green_edge
property uchar blue_edge
property int vertex1
property int vertex2
element vertex 5
property uint16 red
property uint16 green
property uint16 blue
property float64 x
property float64 y
property float64 z
end_header
4 0 1 2 3 1000
3 2 4 3 2000
0 1 0 0 0 
0 0 255 1 2
0 255 255 2 3
255 255 255 3 0
255 255 0 2 4
255 0 0 4 3
255 255 255 0 0 0
255 255 0 0 10 0
255 0 0 10 10 0
0 0 0 10 0 0
0 255 255 10 20 10