ply
format ascii 1.0
comment test file for MDAL
comment crs: +proj=tmerc
element face 2
property list uint8 uint32 face_vector
property uint m
property list uint8 uint32 vertex_indices
element edge  6
property list uint8 uint32 edge_vector
property uchar red_edge
property uchar green_edge
property uchar blue_edge
property int vertex1
property int vertex2
element vertex 5
property list uint8 uint32 vertex_vector
property uint16 red
property uint16 green
property uint16 blue
property float64 x
property float64 y
property float64 z
end_header
2 200 201 1000 4 0 1 2 3
2 202 203 2000 3 2 4 3
2 200 201 0 1 0 0 1 
2 203 204 0 0 255 1 2
2 205 206 0 255 255 2 3
2 207 208 255 255 255 3 0
2 209 210 255 255 0 2 4
2 211 212 255 0 0 4 3
2 201 202 255 255 255 0 0 0
2 203 204 255 255 0 0 10 0
2 205 206 255 0 0 10 10 0
2 207 208 0 0 0 10 0 0
2 209 210 0 255 255 10 20 10