ply
format ascii 1.0
comment test file for MDAL
comment test1
comment test2
comment crs: +proj=tmerc
element vertex 5
property float64 x
property float64 y
property float64 z
property uint16 red
property uint16 green
property uint16 blue
property list uint8 uint32 vertex_vector
element face 2
property list uint8 uint32 vertex_indices
property uint m
property list uint8 uint32 face_vector
element edge  6
property int vertex1
property int vertex2
property uchar red_edge
property uchar green_edge
property uchar blue_edge
property list uint8 uint32 edge_vector
end_header
0 0 0 255 255 255 2 101 102
0 10 0 255 255 0 2 103 104
10 10 0 255 0 0 2 105 106
10 0 0 0 0 0 2 107 108
10 20 10 0 255 255 2 109 110
4 0 1 2 3 1000 2 0 101
3 2 4 3 2000 2 102 103
0 1 0 0 0 2 101 102
1 2 0 0 255 2 103 104
2 3 0 255 255 2 105 0
3 0 255 255 255 2 106 106
2 4 255 255 0 2 0 108
4 3 255 0 0 2 109 0