ply
format ascii 1.0
element vertex 10
property double X
property double Y
property double Z
element face 6
property list uchar uint vertex_indices
end_header
429877111.59 5506787.54 143.073 
429877211.08 5506787.75 142.977 
429877211.57 5506787.97 142.751 
429877311.02 5506788.25 142.701 
429877311.47 5506788.54 142.651 
429877311.92 5506788.83 142.629 
429877411.36 5506789.12 142.607 
429877411.85 5506789.35 142.6 
429877511.33 5506789.57 142.594 
429877511.79 5506789.85 142.607 
3 0 1 2
4 1 2 3 4
4 3 4 5 6
3 5 6 7
3 7 8 9
4 8 9 0 1